<?xml version="1.0" encoding="utf-8"?>
<!-- Generator: Adobe Illustrator 25.0.1, SVG Export Plug-In . SVG Version: 6.00 Build 0)  -->
<svg version="1.0" id="Layer_1" xmlns="http://www.w3.org/2000/svg" xmlns:xlink="http://www.w3.org/1999/xlink" x="0px" y="0px"
	 viewBox="0 0 452 328" style="enable-background:new 0 0 452 328;" xml:space="preserve">
<style type="text/css">
	.st0{fill-rule:evenodd;clip-rule:evenodd;fill:#DDBEDB;}
	.st1{fill-rule:evenodd;clip-rule:evenodd;fill:#FAFBFC;}
	.st2{fill-rule:evenodd;clip-rule:evenodd;fill:#783393;}
	.st3{fill-rule:evenodd;clip-rule:evenodd;fill:#4B2D87;}
	.st4{fill-rule:evenodd;clip-rule:evenodd;fill:#AC6DAD;}
	.st5{fill-rule:evenodd;clip-rule:evenodd;fill:url(#SVGID_1_);}
</style>
<g>
	<path class="st0" d="M228.7,115.5c-18,0-33.6,9.8-42.1,24.3l33.1,19.1c5.6,3.2,12.4,3.2,17.9,0l33-19.1
		C262.4,125.2,246.7,115.5,228.7,115.5L228.7,115.5z"/>
	<path class="st1" d="M219.8,158.8l-33.1-19.1c-4.2,7.2-6.5,15.4-6.5,24.3c0,26.8,21.7,48.5,48.5,48.5s48.5-21.7,48.5-48.5
		c0-8.8-2.4-17.2-6.5-24.3l-33,19.1C232.2,162,225.3,162,219.8,158.8L219.8,158.8z"/>
	<path class="st2" d="M331.4,223.3l-60.6-35c-8.4,14.5-24.1,24.3-42.1,24.3v77c2.9,0,5.7-0.8,8.3-2.2l94.4-54.5c0,0,0.1,0,0.1-0.1
		C335.1,230.6,335,225.3,331.4,223.3z"/>
	<path class="st3" d="M228.7,212.5c-18,0-33.7-9.7-42.1-24.3L120,226.8c1.4,2.5,3.5,4.6,6,6l94.4,54.5c2.6,1.5,5.4,2.2,8.3,2.2
		L228.7,212.5L228.7,212.5z"/>
	<path class="st2" d="M228.7,115.5v-77c-2.9,0-5.7,0.8-8.3,2.2l-94.4,54.5c-2.6,1.5-4.6,3.6-6,6l66.7,38.5
		C195.1,125.2,210.8,115.5,228.7,115.5z"/>
	<path class="st3" d="M331.5,95.2C331.5,95.2,331.4,95.2,331.5,95.2L237,40.6c-2.6-1.5-5.4-2.2-8.3-2.2v77c18,0,33.7,9.7,42.1,24.3
		l60.6-35C335,102.7,335.1,97.4,331.5,95.2z"/>
	<path class="st4" d="M180.2,164c0-8.8,2.4-17.2,6.5-24.3L120,101.2c-1.4,2.5-2.2,5.3-2.2,8.3v109c0,2.9,0.8,5.8,2.2,8.3l66.7-38.5
		C182.6,181.2,180.2,172.8,180.2,164z"/>
	
		<linearGradient id="SVGID_1_" gradientUnits="userSpaceOnUse" x1="-162.3469" y1="172.3774" x2="-162.4061" y2="172.2677" gradientTransform="matrix(1249.5989 0 0 673.6692 203178.0938 -115870.3125)">
		<stop  offset="0" style="stop-color:#2D3079;stop-opacity:1.000000e-02"/>
		<stop  offset="1" style="stop-color:#2D3079;stop-opacity:0.3"/>
	</linearGradient>
	<path class="st5" d="M270.8,188.3c-8.4,14.5-24.1,24.3-42,24.3c-7.2,0-14-1.6-20.2-4.4l82.8,47.8l40.1-23.1c3.7-2.1,3.7-7.5,0-9.6
		L270.8,188.3z"/>
</g>
</svg>
